<svg width="340" height="463" viewBox="0 0 340 463" fill="none" xmlns="http://www.w3.org/2000/svg">
<circle cx="170" cy="170" r="170" fill="#191BA9"/>
<circle cx="170" cy="170" r="150" fill="white"/>
<path d="M170.503 418.199L118.168 328.484L222.031 328.019L170.503 418.199Z" fill="#191BA9"/>
<path d="M139.67 129.909V223H119.989V148.591H119.443L98.125 161.955V144.5L121.17 129.909H139.67ZM198.295 225.045C190.477 225.015 183.75 223.091 178.114 219.273C172.508 215.455 168.189 209.924 165.159 202.682C162.159 195.439 160.674 186.727 160.705 176.545C160.705 166.394 162.205 157.742 165.205 150.591C168.235 143.439 172.553 138 178.159 134.273C183.795 130.515 190.508 128.636 198.295 128.636C206.083 128.636 212.78 130.515 218.386 134.273C224.023 138.03 228.356 143.485 231.386 150.636C234.417 157.758 235.917 166.394 235.886 176.545C235.886 186.758 234.371 195.485 231.341 202.727C228.341 209.97 224.038 215.5 218.432 219.318C212.826 223.136 206.114 225.045 198.295 225.045ZM198.295 208.727C203.629 208.727 207.886 206.045 211.068 200.682C214.25 195.318 215.826 187.273 215.795 176.545C215.795 169.485 215.068 163.606 213.614 158.909C212.189 154.212 210.159 150.682 207.523 148.318C204.917 145.955 201.841 144.773 198.295 144.773C192.992 144.773 188.75 147.424 185.568 152.727C182.386 158.03 180.78 165.97 180.75 176.545C180.75 183.697 181.462 189.667 182.886 194.455C184.341 199.212 186.386 202.788 189.023 205.182C191.659 207.545 194.75 208.727 198.295 208.727Z" fill="#191BA9"/>
<ellipse cx="170" cy="446.5" rx="16" ry="16.5" fill="#191BA9"/>
</svg>
