<svg width="340" height="463" viewBox="0 0 340 463" fill="none" xmlns="http://www.w3.org/2000/svg">
<circle cx="170" cy="170" r="170" fill="#191BA9"/>
<circle cx="170" cy="170" r="150" fill="white"/>
<path d="M170.503 418.199L118.168 328.484L222.031 328.019L170.503 418.199Z" fill="#191BA9"/>
<path d="M146.42 129.909V223H126.739V148.591H126.193L104.875 161.955V144.5L127.92 129.909H146.42ZM168.545 223V208.818L201.682 178.136C204.5 175.409 206.864 172.955 208.773 170.773C210.712 168.591 212.182 166.455 213.182 164.364C214.182 162.242 214.682 159.955 214.682 157.5C214.682 154.773 214.061 152.424 212.818 150.455C211.576 148.455 209.879 146.924 207.727 145.864C205.576 144.773 203.136 144.227 200.409 144.227C197.561 144.227 195.076 144.803 192.955 145.955C190.833 147.106 189.197 148.758 188.045 150.909C186.894 153.061 186.318 155.621 186.318 158.591H167.636C167.636 152.5 169.015 147.212 171.773 142.727C174.53 138.242 178.394 134.773 183.364 132.318C188.333 129.864 194.061 128.636 200.545 128.636C207.212 128.636 213.015 129.818 217.955 132.182C222.924 134.515 226.788 137.758 229.545 141.909C232.303 146.061 233.682 150.818 233.682 156.182C233.682 159.697 232.985 163.167 231.591 166.591C230.227 170.015 227.788 173.818 224.273 178C220.758 182.152 215.803 187.136 209.409 192.955L195.818 206.273V206.909H234.909V223H168.545Z" fill="#191BA9"/>
<ellipse cx="170" cy="446.5" rx="16" ry="16.5" fill="#191BA9"/>
</svg>
