<svg width="340" height="463" viewBox="0 0 340 463" fill="none" xmlns="http://www.w3.org/2000/svg">
<circle cx="170" cy="170" r="170" fill="#191BA9"/>
<circle cx="170" cy="170" r="150" fill="white"/>
<path d="M170.503 418.199L118.168 328.484L222.031 328.019L170.503 418.199Z" fill="#191BA9"/>
<path d="M144.545 129.909V223H124.864V148.591H124.318L103 161.955V144.5L126.045 129.909H144.545ZM201.08 224.273C194.292 224.273 188.246 223.106 182.943 220.773C177.67 218.409 173.504 215.167 170.443 211.045C167.413 206.894 165.852 202.106 165.761 196.682H185.58C185.701 198.955 186.443 200.955 187.807 202.682C189.201 204.379 191.049 205.697 193.352 206.636C195.655 207.576 198.246 208.045 201.125 208.045C204.125 208.045 206.777 207.515 209.08 206.455C211.383 205.394 213.186 203.924 214.489 202.045C215.792 200.167 216.443 198 216.443 195.545C216.443 193.061 215.746 190.864 214.352 188.955C212.989 187.015 211.019 185.5 208.443 184.409C205.898 183.318 202.867 182.773 199.352 182.773H190.67V168.318H199.352C202.322 168.318 204.943 167.803 207.216 166.773C209.519 165.742 211.307 164.318 212.58 162.5C213.852 160.652 214.489 158.5 214.489 156.045C214.489 153.712 213.928 151.667 212.807 149.909C211.716 148.121 210.17 146.727 208.17 145.727C206.201 144.727 203.898 144.227 201.261 144.227C198.595 144.227 196.155 144.712 193.943 145.682C191.731 146.621 189.958 147.97 188.625 149.727C187.292 151.485 186.58 153.545 186.489 155.909H167.625C167.716 150.545 169.246 145.818 172.216 141.727C175.186 137.636 179.186 134.439 184.216 132.136C189.277 129.803 194.989 128.636 201.352 128.636C207.777 128.636 213.398 129.803 218.216 132.136C223.034 134.47 226.777 137.621 229.443 141.591C232.14 145.53 233.473 149.955 233.443 154.864C233.473 160.076 231.852 164.424 228.58 167.909C225.337 171.394 221.11 173.606 215.898 174.545V175.273C222.746 176.152 227.958 178.53 231.534 182.409C235.14 186.258 236.928 191.076 236.898 196.864C236.928 202.167 235.398 206.879 232.307 211C229.246 215.121 225.019 218.364 219.625 220.727C214.231 223.091 208.049 224.273 201.08 224.273Z" fill="#191BA9"/>
<ellipse cx="170" cy="446.5" rx="16" ry="16.5" fill="#191BA9"/>
</svg>
