<svg width="340" height="463" viewBox="0 0 340 463" fill="none" xmlns="http://www.w3.org/2000/svg">
<circle cx="170" cy="170" r="170" fill="#191BA9"/>
<circle cx="170" cy="170" r="150" fill="white"/>
<path d="M170.503 418.199L118.168 328.484L222.031 328.019L170.503 418.199Z" fill="#191BA9"/>
<path d="M145.483 129.909V223H125.801V148.591H125.256L103.938 161.955V144.5L126.983 129.909H145.483ZM201.608 224.273C195.184 224.273 189.456 223.091 184.426 220.727C179.426 218.364 175.456 215.106 172.517 210.955C169.578 206.803 168.047 202.045 167.926 196.682H187.017C187.229 200.288 188.744 203.212 191.562 205.455C194.381 207.697 197.729 208.818 201.608 208.818C204.699 208.818 207.426 208.136 209.79 206.773C212.184 205.379 214.047 203.455 215.381 201C216.744 198.515 217.426 195.667 217.426 192.455C217.426 189.182 216.729 186.303 215.335 183.818C213.972 181.333 212.078 179.394 209.653 178C207.229 176.606 204.456 175.894 201.335 175.864C198.608 175.864 195.956 176.424 193.381 177.545C190.835 178.667 188.85 180.197 187.426 182.136L169.926 179L174.335 129.909H231.244V146H190.562L188.153 169.318H188.699C190.335 167.015 192.805 165.106 196.108 163.591C199.411 162.076 203.108 161.318 207.199 161.318C212.805 161.318 217.805 162.636 222.199 165.273C226.593 167.909 230.062 171.53 232.608 176.136C235.153 180.712 236.411 185.985 236.381 191.955C236.411 198.227 234.956 203.803 232.017 208.682C229.108 213.53 225.032 217.348 219.79 220.136C214.578 222.894 208.517 224.273 201.608 224.273Z" fill="#191BA9"/>
<ellipse cx="170" cy="446.5" rx="16" ry="16.5" fill="#191BA9"/>
</svg>
