<svg width="340" height="463" viewBox="0 0 340 463" fill="none" xmlns="http://www.w3.org/2000/svg">
<circle cx="170" cy="170" r="170" fill="#191BA9"/>
<circle cx="170" cy="170" r="150" fill="white"/>
<path d="M170.503 418.199L118.168 328.484L222.031 328.019L170.503 418.199Z" fill="#191BA9"/>
<path d="M100.983 129.909V223H81.3011V148.591H80.7557L59.4375 161.955V144.5L82.483 129.909H100.983ZM158.835 224.273C154.047 224.242 149.426 223.439 144.972 221.864C140.547 220.288 136.578 217.727 133.062 214.182C129.547 210.636 126.759 205.939 124.699 200.091C122.669 194.242 121.653 187.061 121.653 178.545C121.684 170.727 122.578 163.742 124.335 157.591C126.123 151.409 128.669 146.167 131.972 141.864C135.305 137.561 139.29 134.288 143.926 132.045C148.563 129.773 153.759 128.636 159.517 128.636C165.729 128.636 171.214 129.848 175.972 132.273C180.729 134.667 184.547 137.924 187.426 142.045C190.335 146.167 192.093 150.788 192.699 155.909H173.29C172.532 152.667 170.941 150.121 168.517 148.273C166.093 146.424 163.093 145.5 159.517 145.5C153.456 145.5 148.85 148.136 145.699 153.409C142.578 158.682 140.987 165.848 140.926 174.909H141.562C142.956 172.152 144.835 169.803 147.199 167.864C149.593 165.894 152.305 164.394 155.335 163.364C158.396 162.303 161.623 161.773 165.017 161.773C170.532 161.773 175.441 163.076 179.744 165.682C184.047 168.258 187.441 171.803 189.926 176.318C192.411 180.833 193.653 186 193.653 191.818C193.653 198.121 192.184 203.727 189.244 208.636C186.335 213.545 182.259 217.394 177.017 220.182C171.805 222.939 165.744 224.303 158.835 224.273ZM158.744 208.818C161.775 208.818 164.487 208.091 166.881 206.636C169.275 205.182 171.153 203.212 172.517 200.727C173.881 198.242 174.562 195.455 174.562 192.364C174.562 189.273 173.881 186.5 172.517 184.045C171.184 181.591 169.335 179.636 166.972 178.182C164.608 176.727 161.911 176 158.881 176C156.608 176 154.502 176.424 152.562 177.273C150.653 178.121 148.972 179.303 147.517 180.818C146.093 182.333 144.972 184.091 144.153 186.091C143.335 188.061 142.926 190.167 142.926 192.409C142.926 195.409 143.608 198.152 144.972 200.636C146.366 203.121 148.244 205.106 150.608 206.591C153.002 208.076 155.714 208.818 158.744 208.818ZM235.426 208.818V144.455H251.699V208.818H235.426ZM211.381 184.773V168.5H275.744V184.773H211.381Z" fill="#191BA9"/>
<ellipse cx="170" cy="446.5" rx="16" ry="16.5" fill="#191BA9"/>
</svg>
