<svg width="340" height="463" viewBox="0 0 340 463" fill="none" xmlns="http://www.w3.org/2000/svg">
<circle cx="170" cy="170" r="170" fill="#191BA9"/>
<circle cx="170" cy="170" r="150" fill="white"/>
<path d="M170.503 418.199L118.168 328.484L222.031 328.019L170.503 418.199Z" fill="#191BA9"/>
<path d="M134.233 223V208.818L167.369 178.136C170.188 175.409 172.551 172.955 174.46 170.773C176.4 168.591 177.869 166.455 178.869 164.364C179.869 162.242 180.369 159.955 180.369 157.5C180.369 154.773 179.748 152.424 178.506 150.455C177.263 148.455 175.566 146.924 173.415 145.864C171.263 144.773 168.824 144.227 166.097 144.227C163.248 144.227 160.763 144.803 158.642 145.955C156.521 147.106 154.884 148.758 153.733 150.909C152.581 153.061 152.006 155.621 152.006 158.591H133.324C133.324 152.5 134.703 147.212 137.46 142.727C140.218 138.242 144.081 134.773 149.051 132.318C154.021 129.864 159.748 128.636 166.233 128.636C172.9 128.636 178.703 129.818 183.642 132.182C188.612 134.515 192.475 137.758 195.233 141.909C197.991 146.061 199.369 150.818 199.369 156.182C199.369 159.697 198.672 163.167 197.278 166.591C195.915 170.015 193.475 173.818 189.96 178C186.445 182.152 181.491 187.136 175.097 192.955L161.506 206.273V206.909H200.597V223H134.233Z" fill="#191BA9"/>
<ellipse cx="170" cy="446.5" rx="16" ry="16.5" fill="#191BA9"/>
</svg>
