<svg width="340" height="463" viewBox="0 0 340 463" fill="none" xmlns="http://www.w3.org/2000/svg">
<circle cx="170" cy="170" r="170" fill="#191BA9"/>
<circle cx="170" cy="170" r="150" fill="white"/>
<path d="M170.503 418.199L118.168 328.484L222.031 328.019L170.503 418.199Z" fill="#191BA9"/>
<path d="M166.767 224.273C159.979 224.273 153.934 223.106 148.631 220.773C143.358 218.409 139.191 215.167 136.131 211.045C133.1 206.894 131.54 202.106 131.449 196.682H151.267C151.388 198.955 152.131 200.955 153.494 202.682C154.888 204.379 156.737 205.697 159.04 206.636C161.343 207.576 163.934 208.045 166.812 208.045C169.812 208.045 172.464 207.515 174.767 206.455C177.07 205.394 178.873 203.924 180.176 202.045C181.479 200.167 182.131 198 182.131 195.545C182.131 193.061 181.434 190.864 180.04 188.955C178.676 187.015 176.706 185.5 174.131 184.409C171.585 183.318 168.555 182.773 165.04 182.773H156.358V168.318H165.04C168.009 168.318 170.631 167.803 172.903 166.773C175.206 165.742 176.994 164.318 178.267 162.5C179.54 160.652 180.176 158.5 180.176 156.045C180.176 153.712 179.616 151.667 178.494 149.909C177.403 148.121 175.858 146.727 173.858 145.727C171.888 144.727 169.585 144.227 166.949 144.227C164.282 144.227 161.843 144.712 159.631 145.682C157.419 146.621 155.646 147.97 154.312 149.727C152.979 151.485 152.267 153.545 152.176 155.909H133.312C133.403 150.545 134.934 145.818 137.903 141.727C140.873 137.636 144.873 134.439 149.903 132.136C154.964 129.803 160.676 128.636 167.04 128.636C173.464 128.636 179.085 129.803 183.903 132.136C188.722 134.47 192.464 137.621 195.131 141.591C197.828 145.53 199.161 149.955 199.131 154.864C199.161 160.076 197.54 164.424 194.267 167.909C191.025 171.394 186.797 173.606 181.585 174.545V175.273C188.434 176.152 193.646 178.53 197.222 182.409C200.828 186.258 202.616 191.076 202.585 196.864C202.616 202.167 201.085 206.879 197.994 211C194.934 215.121 190.706 218.364 185.312 220.727C179.919 223.091 173.737 224.273 166.767 224.273Z" fill="#191BA9"/>
<ellipse cx="170" cy="446.5" rx="16" ry="16.5" fill="#191BA9"/>
</svg>
