<svg width="340" height="463" viewBox="0 0 340 463" fill="none" xmlns="http://www.w3.org/2000/svg">
<circle cx="170" cy="170" r="170" fill="#191BA9"/>
<circle cx="170" cy="170" r="150" fill="white"/>
<path d="M170.503 418.199L118.168 328.484L222.031 328.019L170.503 418.199Z" fill="#191BA9"/>
<path d="M167.295 224.273C160.871 224.273 155.144 223.091 150.114 220.727C145.114 218.364 141.144 215.106 138.205 210.955C135.265 206.803 133.735 202.045 133.614 196.682H152.705C152.917 200.288 154.432 203.212 157.25 205.455C160.068 207.697 163.417 208.818 167.295 208.818C170.386 208.818 173.114 208.136 175.477 206.773C177.871 205.379 179.735 203.455 181.068 201C182.432 198.515 183.114 195.667 183.114 192.455C183.114 189.182 182.417 186.303 181.023 183.818C179.659 181.333 177.765 179.394 175.341 178C172.917 176.606 170.144 175.894 167.023 175.864C164.295 175.864 161.644 176.424 159.068 177.545C156.523 178.667 154.538 180.197 153.114 182.136L135.614 179L140.023 129.909H196.932V146H156.25L153.841 169.318H154.386C156.023 167.015 158.492 165.106 161.795 163.591C165.098 162.076 168.795 161.318 172.886 161.318C178.492 161.318 183.492 162.636 187.886 165.273C192.28 167.909 195.75 171.53 198.295 176.136C200.841 180.712 202.098 185.985 202.068 191.955C202.098 198.227 200.644 203.803 197.705 208.682C194.795 213.53 190.72 217.348 185.477 220.136C180.265 222.894 174.205 224.273 167.295 224.273Z" fill="#191BA9"/>
<ellipse cx="170" cy="446.5" rx="16" ry="16.5" fill="#191BA9"/>
</svg>
