<svg width="340" height="463" viewBox="0 0 340 463" fill="none" xmlns="http://www.w3.org/2000/svg">
<circle cx="170" cy="170" r="170" fill="#191BA9"/>
<circle cx="170" cy="170" r="150" fill="white"/>
<path d="M170.503 418.199L118.168 328.484L222.031 328.019L170.503 418.199Z" fill="#191BA9"/>
<path d="M168.023 224.273C163.235 224.242 158.614 223.439 154.159 221.864C149.735 220.288 145.765 217.727 142.25 214.182C138.735 210.636 135.947 205.939 133.886 200.091C131.856 194.242 130.841 187.061 130.841 178.545C130.871 170.727 131.765 163.742 133.523 157.591C135.311 151.409 137.856 146.167 141.159 141.864C144.492 137.561 148.477 134.288 153.114 132.045C157.75 129.773 162.947 128.636 168.705 128.636C174.917 128.636 180.402 129.848 185.159 132.273C189.917 134.667 193.735 137.924 196.614 142.045C199.523 146.167 201.28 150.788 201.886 155.909H182.477C181.72 152.667 180.129 150.121 177.705 148.273C175.28 146.424 172.28 145.5 168.705 145.5C162.644 145.5 158.038 148.136 154.886 153.409C151.765 158.682 150.174 165.848 150.114 174.909H150.75C152.144 172.152 154.023 169.803 156.386 167.864C158.78 165.894 161.492 164.394 164.523 163.364C167.583 162.303 170.811 161.773 174.205 161.773C179.72 161.773 184.629 163.076 188.932 165.682C193.235 168.258 196.629 171.803 199.114 176.318C201.598 180.833 202.841 186 202.841 191.818C202.841 198.121 201.371 203.727 198.432 208.636C195.523 213.545 191.447 217.394 186.205 220.182C180.992 222.939 174.932 224.303 168.023 224.273ZM167.932 208.818C170.962 208.818 173.674 208.091 176.068 206.636C178.462 205.182 180.341 203.212 181.705 200.727C183.068 198.242 183.75 195.455 183.75 192.364C183.75 189.273 183.068 186.5 181.705 184.045C180.371 181.591 178.523 179.636 176.159 178.182C173.795 176.727 171.098 176 168.068 176C165.795 176 163.689 176.424 161.75 177.273C159.841 178.121 158.159 179.303 156.705 180.818C155.28 182.333 154.159 184.091 153.341 186.091C152.523 188.061 152.114 190.167 152.114 192.409C152.114 195.409 152.795 198.152 154.159 200.636C155.553 203.121 157.432 205.106 159.795 206.591C162.189 208.076 164.902 208.818 167.932 208.818Z" fill="#191BA9"/>
<ellipse cx="170" cy="446.5" rx="16" ry="16.5" fill="#191BA9"/>
</svg>
