<svg width="340" height="463" viewBox="0 0 340 463" fill="none" xmlns="http://www.w3.org/2000/svg">
<circle cx="170" cy="170" r="170" fill="#191BA9"/>
<circle cx="170" cy="170" r="150" fill="white"/>
<path d="M170.503 418.199L118.168 328.484L222.031 328.019L170.503 418.199Z" fill="#191BA9"/>
<path d="M166.96 224.273C159.96 224.273 153.733 223.136 148.278 220.864C142.854 218.561 138.597 215.424 135.506 211.455C132.415 207.485 130.869 202.985 130.869 197.955C130.869 194.076 131.748 190.515 133.506 187.273C135.294 184 137.718 181.288 140.778 179.136C143.839 176.955 147.263 175.561 151.051 174.955V174.318C146.081 173.318 142.051 170.909 138.96 167.091C135.869 163.242 134.324 158.773 134.324 153.682C134.324 148.864 135.733 144.576 138.551 140.818C141.369 137.03 145.233 134.061 150.142 131.909C155.081 129.727 160.688 128.636 166.96 128.636C173.233 128.636 178.824 129.727 183.733 131.909C188.672 134.091 192.551 137.076 195.369 140.864C198.188 144.621 199.612 148.894 199.642 153.682C199.612 158.803 198.036 163.273 194.915 167.091C191.794 170.909 187.794 173.318 182.915 174.318V174.955C186.642 175.561 190.021 176.955 193.051 179.136C196.112 181.288 198.536 184 200.324 187.273C202.142 190.515 203.066 194.076 203.097 197.955C203.066 202.985 201.506 207.485 198.415 211.455C195.324 215.424 191.051 218.561 185.597 220.864C180.172 223.136 173.96 224.273 166.96 224.273ZM166.96 209.818C170.081 209.818 172.809 209.258 175.142 208.136C177.475 206.985 179.294 205.409 180.597 203.409C181.93 201.379 182.597 199.045 182.597 196.409C182.597 193.712 181.915 191.333 180.551 189.273C179.188 187.182 177.339 185.545 175.006 184.364C172.672 183.152 169.991 182.545 166.96 182.545C163.96 182.545 161.278 183.152 158.915 184.364C156.551 185.545 154.688 187.182 153.324 189.273C151.991 191.333 151.324 193.712 151.324 196.409C151.324 199.045 151.975 201.379 153.278 203.409C154.581 205.409 156.415 206.985 158.778 208.136C161.142 209.258 163.869 209.818 166.96 209.818ZM166.96 168.227C169.566 168.227 171.884 167.697 173.915 166.636C175.945 165.576 177.536 164.106 178.688 162.227C179.839 160.348 180.415 158.182 180.415 155.727C180.415 153.303 179.839 151.182 178.688 149.364C177.536 147.515 175.96 146.076 173.96 145.045C171.96 143.985 169.627 143.455 166.96 143.455C164.324 143.455 161.991 143.985 159.96 145.045C157.93 146.076 156.339 147.515 155.188 149.364C154.066 151.182 153.506 153.303 153.506 155.727C153.506 158.182 154.081 160.348 155.233 162.227C156.384 164.106 157.975 165.576 160.006 166.636C162.036 167.697 164.354 168.227 166.96 168.227Z" fill="#191BA9"/>
<ellipse cx="170" cy="446.5" rx="16" ry="16.5" fill="#191BA9"/>
</svg>
