<svg width="340" height="463" viewBox="0 0 340 463" fill="none" xmlns="http://www.w3.org/2000/svg">
<circle cx="170" cy="170" r="170" fill="#191BA9"/>
<circle cx="170" cy="170" r="150" fill="white"/>
<path d="M170.503 418.199L118.168 328.484L222.031 328.019L170.503 418.199Z" fill="#191BA9"/>
<path d="M165.977 128.636C170.765 128.636 175.371 129.439 179.795 131.045C184.25 132.652 188.22 135.212 191.705 138.727C195.22 142.242 197.992 146.909 200.023 152.727C202.083 158.515 203.129 165.621 203.159 174.045C203.159 181.955 202.265 189.015 200.477 195.227C198.72 201.409 196.189 206.667 192.886 211C189.583 215.333 185.598 218.636 180.932 220.909C176.265 223.152 171.053 224.273 165.295 224.273C159.083 224.273 153.598 223.076 148.841 220.682C144.083 218.258 140.25 214.97 137.341 210.818C134.462 206.636 132.72 201.939 132.114 196.727H151.523C152.28 200.121 153.871 202.758 156.295 204.636C158.72 206.485 161.72 207.409 165.295 207.409C171.356 207.409 175.962 204.773 179.114 199.5C182.265 194.197 183.856 186.939 183.886 177.727H183.25C181.856 180.455 179.977 182.803 177.614 184.773C175.25 186.712 172.538 188.212 169.477 189.273C166.447 190.333 163.22 190.864 159.795 190.864C154.311 190.864 149.417 189.576 145.114 187C140.811 184.424 137.417 180.879 134.932 176.364C132.447 171.848 131.205 166.697 131.205 160.909C131.174 154.667 132.614 149.106 135.523 144.227C138.432 139.348 142.492 135.53 147.705 132.773C152.947 129.985 159.038 128.606 165.977 128.636ZM166.114 144.091C163.053 144.091 160.326 144.818 157.932 146.273C155.568 147.727 153.689 149.682 152.295 152.136C150.932 154.591 150.265 157.333 150.295 160.364C150.295 163.424 150.962 166.182 152.295 168.636C153.659 171.061 155.508 173 157.841 174.455C160.205 175.879 162.902 176.591 165.932 176.591C168.205 176.591 170.311 176.167 172.25 175.318C174.189 174.47 175.871 173.303 177.295 171.818C178.75 170.303 179.886 168.561 180.705 166.591C181.523 164.621 181.932 162.53 181.932 160.318C181.902 157.379 181.205 154.682 179.841 152.227C178.477 149.773 176.598 147.803 174.205 146.318C171.811 144.833 169.114 144.091 166.114 144.091Z" fill="#191BA9"/>
<ellipse cx="170" cy="446.5" rx="16" ry="16.5" fill="#191BA9"/>
</svg>
